<svg version="1.1" id="Layer_1" xmlns="http://www.w3.org/2000/svg" xmlns:xlink="http://www.w3.org/1999/xlink" x="0px" y="0px"
	 width="100%" viewBox="0 0 288 257" enable-background="new 0 0 288 257" xml:space="preserve">
<path fill="#000000" opacity="1.000000" stroke="none" 
	d="
M289.000000,256.592529 
	C287.479858,257.375153 285.959808,257.960327 284.439514,257.961029 
	C189.977737,258.004364 95.515923,258.000000 1.027054,258.000000 
	C1.027054,172.386002 1.027054,86.771980 1.027054,1.078983 
	C96.908493,1.078983 192.817062,1.078983 289.000000,1.078983 
	C289.000000,86.040596 289.000000,171.081482 289.000000,256.592529 
M190.826035,173.657532 
	C190.744003,178.702271 194.247574,177.542648 197.112473,177.167526 
	C199.080078,176.909927 200.996475,176.261185 203.988922,175.529907 
	C203.640747,173.288239 203.208328,170.504105 202.775894,167.719971 
	C200.804016,168.959167 198.832138,170.198349 196.947952,171.382431 
	C195.639374,170.377716 194.177750,169.255508 192.716156,168.133301 
	C192.099899,169.738739 191.483643,171.344177 190.826035,173.657532 
M248.855392,164.467773 
	C247.962891,166.724991 245.712891,170.189301 246.439682,171.006638 
	C248.396515,173.207260 251.623550,174.278427 254.468262,175.865952 
	C256.658844,167.157852 255.791458,165.294830 248.855392,164.467773 
M262.314972,172.417953 
	C263.026886,170.120178 263.738831,167.822403 264.450745,165.524628 
	C264.159912,165.101852 263.869080,164.679077 263.578247,164.256302 
	C261.815125,165.068680 258.688477,165.693695 258.546234,166.728821 
	C258.130798,169.752136 258.496674,173.074951 259.460114,175.980728 
	C259.756500,176.874557 262.961823,176.803864 264.835114,177.174835 
	C264.881836,176.736221 264.928528,176.297607 264.975220,175.858978 
	C264.038910,174.857437 263.102570,173.855896 262.314972,172.417953 
M235.423233,171.058517 
	C235.423233,172.326599 235.423233,173.594681 235.423233,174.958359 
	C238.188416,175.120361 240.714767,175.268387 244.837860,175.509949 
	C242.487946,171.783447 240.810745,169.123749 239.133545,166.464050 
	C237.940125,167.795547 236.746719,169.127045 235.423233,171.058517 
M222.738235,175.335556 
	C223.500122,175.912994 224.262024,176.490448 225.648575,177.541336 
	C223.383621,169.734802 223.745804,169.185974 231.018967,167.812027 
	C229.634323,166.749863 227.999893,165.613571 226.455704,165.725235 
	C222.829498,165.987442 221.328125,169.710617 222.738235,175.335556 
M209.395142,167.880478 
	C208.358490,168.066147 206.457321,168.153229 206.423096,168.453217 
	C206.168854,170.682785 206.285172,172.954620 206.285172,176.352524 
	C209.063095,174.510361 210.482010,173.569412 212.048767,172.530426 
	C211.108765,170.832520 210.408127,169.566971 209.395142,167.880478 
M211.246124,176.725479 
	C211.050598,177.025665 210.855072,177.325851 210.659531,177.626022 
	C210.797485,177.696045 210.935440,177.766068 211.073380,177.836105 
	C211.210739,177.506699 211.348099,177.177277 211.246124,176.725479 
z"/>
<path fill="#0B0D0C" opacity="1.000000" stroke="none" 
	d="
M190.846710,173.303558 
	C191.483643,171.344177 192.099899,169.738739 192.716156,168.133301 
	C194.177750,169.255508 195.639374,170.377716 196.947952,171.382431 
	C198.832138,170.198349 200.804016,168.959167 202.775894,167.719971 
	C203.208328,170.504105 203.640747,173.288239 203.988922,175.529907 
	C200.996475,176.261185 199.080078,176.909927 197.112473,177.167526 
	C194.247574,177.542648 190.744003,178.702271 190.846710,173.303558 
z"/>
<path fill="#0B0D0C" opacity="1.000000" stroke="none" 
	d="
M249.227631,164.404175 
	C255.791458,165.294830 256.658844,167.157852 254.468262,175.865952 
	C251.623550,174.278427 248.396515,173.207260 246.439682,171.006638 
	C245.712891,170.189301 247.962891,166.724991 249.227631,164.404175 
M252.240601,169.009506 
	C252.002762,168.957977 251.764908,168.906464 251.527054,168.854935 
	C251.517609,168.989426 251.508179,169.123932 251.498749,169.258423 
	C251.741043,169.242523 251.983353,169.226624 252.240601,169.009506 
z"/>
<path fill="#0B0D0C" opacity="1.000000" stroke="none" 
	d="
M262.240601,172.636154 
	C263.102570,173.855896 264.038910,174.857437 264.975220,175.858978 
	C264.928528,176.297607 264.881836,176.736221 264.835114,177.174835 
	C262.961823,176.803864 259.756500,176.874557 259.460114,175.980728 
	C258.496674,173.074951 258.130798,169.752136 258.546234,166.728821 
	C258.688477,165.693695 261.815125,165.068680 263.578247,164.256302 
	C263.869080,164.679077 264.159912,165.101852 264.450745,165.524628 
	C263.738831,167.822403 263.026886,170.120178 262.240601,172.636154 
z"/>
<path fill="#0B0D0C" opacity="1.000000" stroke="none" 
	d="
M235.488281,170.758545 
	C236.746719,169.127045 237.940125,167.795547 239.133545,166.464050 
	C240.810745,169.123749 242.487946,171.783447 244.837860,175.509949 
	C240.714767,175.268387 238.188416,175.120361 235.423233,174.958359 
	C235.423233,173.594681 235.423233,172.326599 235.488281,170.758545 
z"/>
<path fill="#0B0D0C" opacity="1.000000" stroke="none" 
	d="
M222.597351,175.047913 
	C221.328125,169.710617 222.829498,165.987442 226.455704,165.725235 
	C227.999893,165.613571 229.634323,166.749863 231.018967,167.812027 
	C223.745804,169.185974 223.383621,169.734802 225.648575,177.541336 
	C224.262024,176.490448 223.500122,175.912994 222.597351,175.047913 
z"/>
<path fill="#0B0D0C" opacity="1.000000" stroke="none" 
	d="
M209.551331,168.090942 
	C210.408127,169.566971 211.108765,170.832520 212.048767,172.530426 
	C210.482010,173.569412 209.063095,174.510361 206.285172,176.352524 
	C206.285172,172.954620 206.168854,170.682785 206.423096,168.453217 
	C206.457321,168.153229 208.358490,168.066147 209.551331,168.090942 
z"/>
<path fill="#0B0D0C" opacity="1.000000" stroke="none" 
	d="
M211.365784,176.786682 
	C211.348099,177.177277 211.210739,177.506699 211.073380,177.836105 
	C210.935440,177.766068 210.797485,177.696045 210.659546,177.626038 
	C210.855072,177.325851 211.050598,177.025665 211.365784,176.786682 
z"/>
<path fill="#000000" opacity="1.000000" stroke="none" 
	d="
M252.233124,169.110107 
	C251.983353,169.226624 251.741043,169.242523 251.498749,169.258423 
	C251.508179,169.123932 251.517609,168.989426 251.527069,168.854935 
	C251.764908,168.906464 252.002762,168.957977 252.233124,169.110107 
z"/>
</svg>